<svg width="80" height="77" viewBox="0 0 71 68" fill="none" xmlns="http://www.w3.org/2000/svg">
<path d="M24.0769 54.1841C24.0769 54.4624 23.7541 54.685 23.3471 54.685C22.884 54.7267 22.5611 54.5041 22.5611 54.1841C22.5611 53.9058 22.884 53.6831 23.291 53.6831C23.712 53.6414 24.0769 53.864 24.0769 54.1841ZM19.7121 53.5579C19.6138 53.8362 19.8945 54.1562 20.3156 54.2397C20.6805 54.3789 21.1015 54.2397 21.1857 53.9614C21.2699 53.6831 21.0033 53.3631 20.5822 53.2379C20.2173 53.1405 19.8103 53.2796 19.7121 53.5579ZM25.9155 53.3214C25.5085 53.4188 25.2278 53.6831 25.2699 54.0032C25.312 54.2815 25.6769 54.4624 26.0979 54.365C26.505 54.2676 26.7857 54.0032 26.7436 53.7249C26.7015 53.4605 26.3225 53.2796 25.9155 53.3214ZM35.1505 0C15.684 0 0.792969 14.6522 0.792969 33.952C0.792969 49.3835 10.5894 62.5886 24.5822 67.2361C26.3786 67.5562 27.0102 66.4569 27.0102 65.5524C27.0102 64.6897 26.9681 59.9309 26.9681 57.0088C26.9681 57.0088 17.1437 59.096 15.0805 52.8622C15.0805 52.8622 13.4805 48.813 11.1788 47.7694C11.1788 47.7694 7.96482 45.5848 11.4034 45.6265C11.4034 45.6265 14.8981 45.9048 16.8209 49.2165C19.8945 54.5876 25.0453 53.0431 27.0523 52.1247C27.3751 49.8983 28.2874 48.3538 29.2979 47.4354C21.4524 46.5727 13.5367 45.4456 13.5367 32.0596C13.5367 28.233 14.6033 26.3128 16.8489 23.8638C16.484 22.9594 15.2911 19.2302 17.2138 14.4157C20.1471 13.5112 26.8979 18.1727 26.8979 18.1727C29.7049 17.3934 32.7224 16.9899 35.7119 16.9899C38.7013 16.9899 41.7188 17.3934 44.5258 18.1727C44.5258 18.1727 51.2766 13.4973 54.2099 14.4157C56.1327 19.2441 54.9397 22.9594 54.5748 23.8638C56.8204 26.3267 58.1958 28.247 58.1958 32.0596C58.1958 45.4873 49.9293 46.5588 42.0837 47.4354C43.375 48.5347 44.4697 50.6219 44.4697 53.8919C44.4697 58.5811 44.4276 64.3836 44.4276 65.5246C44.4276 66.4291 45.0732 67.5283 46.8556 67.2083C60.8905 62.5886 70.4062 49.3835 70.4062 33.952C70.4062 14.6522 54.6169 0 35.1505 0ZM14.4349 47.992C14.2525 48.1312 14.2946 48.4512 14.5332 48.7156C14.7577 48.9382 15.0805 49.0356 15.263 48.8547C15.4454 48.7156 15.4033 48.3955 15.1647 48.1312C14.9402 47.9085 14.6174 47.8111 14.4349 47.992ZM12.9191 46.8649C12.8209 47.0458 12.9613 47.2684 13.242 47.4076C13.4665 47.5467 13.7472 47.505 13.8455 47.3102C13.9437 47.1293 13.8033 46.9067 13.5227 46.7675C13.242 46.684 13.0174 46.7258 12.9191 46.8649ZM17.4665 51.8186C17.2419 51.9995 17.3261 52.4169 17.6489 52.6813C17.9717 53.0013 18.3787 53.0431 18.5612 52.8204C18.7436 52.6395 18.6594 52.2221 18.3787 51.9577C18.07 51.6377 17.6489 51.5959 17.4665 51.8186ZM15.8665 49.7731C15.6419 49.9122 15.6419 50.274 15.8665 50.5941C16.091 50.9141 16.47 51.0533 16.6524 50.9141C16.877 50.7332 16.877 50.3714 16.6524 50.0514C16.456 49.7314 16.091 49.5922 15.8665 49.7731Z" fill="white"/>
</svg>
