<svg width="80" height="77" viewBox="0 0 80 77" fill="none" xmlns="http://www.w3.org/2000/svg">
<g clip-path="url(#clip0_108_9)">
<path d="M80.0001 38.5197C80.0001 35.8629 79.7798 33.1917 79.3097 30.5779H41.6001V45.6286H63.1946C62.2985 50.4828 58.6162 55.3692 54.4001 58.0979L55.2032 67.2712L67.2001 67.2712C74.7655 60.4639 80.0001 50.411 80.0001 38.5197Z" fill="white"/>
<path d="M40.6256 76.4445C51.438 76.4445 60.5564 73.0948 67.2001 67.3128L54.4001 58.0978C50.8057 60.405 46.0465 61.4753 40.6403 61.4753C30.1814 61.4753 20.7819 54.8177 17.6001 45.8667H4.80005V55.6099C11.6057 68.3831 25.4675 76.4445 40.6256 76.4445Z" fill="white"/>
<path d="M17.6 45.8666C15.7661 41.2148 16.5661 35.2294 18.4 30.5777L19.2 21.4043L4.8 20.6399C-1.40964 31.2233 -1.55237 44.4565 4.65727 55.0399L17.6 45.8666Z" fill="white"/>
<path d="M41.3973 14.9637C47.236 14.8804 52.8791 16.9085 57.1076 20.6315L68.8001 9.83774C61.3963 3.41986 51.5699 -0.108584 41.3973 0.00254769C25.9127 0.00254769 11.7523 7.8598 4.80005 20.64L18.4036 30.5778C21.639 21.6178 30.7131 14.9637 41.3973 14.9637Z" fill="white"/>
</g>
<defs>
<clipPath id="clip0_108_9">
<rect width="80" height="76.4445" fill="white"/>
</clipPath>
</defs>
</svg>
