<svg width="80" height="77" viewBox="0 0 71 67" fill="none" xmlns="http://www.w3.org/2000/svg">
<path d="M0.371826 9.36444C0.371826 4.1926 4.75944 0 10.1718 0H60.5718C65.9842 0 70.3718 4.19261 70.3718 9.36444V57.5244C70.3718 62.6963 65.9842 66.8889 60.5718 66.8889H10.1718C4.75943 66.8889 0.371826 62.6963 0.371826 57.5244V9.36444Z" fill="white"/>
<path d="M25.5718 18.06C25.5718 21.3848 22.7512 24.08 19.2718 24.08C15.7924 24.08 12.9718 21.3848 12.9718 18.06C12.9718 14.7352 15.7924 12.04 19.2718 12.04C22.7512 12.04 25.5718 14.7352 25.5718 18.06Z" fill="#000235"/>
<path d="M14.3718 28.0933C14.3718 27.3545 14.9986 26.7556 15.7718 26.7556H22.7718C23.545 26.7556 24.1718 27.3545 24.1718 28.0933V53.5111C24.1718 54.2499 23.545 54.8489 22.7718 54.8489H15.7718C14.9986 54.8489 14.3718 54.2499 14.3718 53.5111V28.0933Z" fill="#000235"/>
<path d="M29.7718 26.7556L36.0718 26.7556C36.845 26.7556 37.4718 27.3545 37.4718 28.0934V29.4311C40.2718 26.0867 45.4052 25.8637 47.9718 26.0866C55.9733 26.7817 57.3052 34.5593 57.0718 38.7956L57.0718 53.5111C57.0718 54.25 56.445 54.8489 55.6718 54.8489L49.3718 54.8489C48.5986 54.8489 47.9718 54.25 47.9718 53.5111V38.7956C47.7385 37.0119 46.4318 33.4444 43.0718 33.4444C39.7118 33.4444 37.7052 37.4578 37.4718 38.7956V53.5111C37.4718 54.25 36.845 54.8489 36.0718 54.8489L29.7718 54.8489C28.9986 54.8489 28.3718 54.25 28.3718 53.5111V28.0933C28.3718 27.3545 28.9986 26.7556 29.7718 26.7556Z" fill="#000235"/>
</svg>
